<?xml version="1.0" standalone="no"?>
<!DOCTYPE svg PUBLIC "-//W3C//DTD SVG 1.1//EN" "http://www.w3.org/Graphics/SVG/1.1/DTD/svg11.dtd" >
<svg xmlns="http://www.w3.org/2000/svg">
<metadata></metadata>
<defs>
<font id="anime_acebold" horiz-adv-x="908" >
<font-face units-per-em="2048" ascent="1638" descent="-410" />
<missing-glyph horiz-adv-x="500" />
<glyph unicode="&#xd;" />
<glyph unicode=" " />
<glyph unicode="!" horiz-adv-x="1138" d="M-108 38q0 84 94 304q32 76 190 76q150 0 150 -70q0 -24 -68 -162q-64 -130 -88 -164q-48 -66 -162 -66q-116 0 -116 82zM156 644q0 44 50 136q16 32 290 618q114 246 122 262q76 150 154 244q68 82 236 82q70 0 130 -20q82 -28 82 -82q0 -24 -232 -336l-280 -376 q-156 -222 -228 -404q-54 -134 -58 -140q-40 -60 -132 -60q-134 0 -134 76z" />
<glyph unicode="&#x22;" horiz-adv-x="832" d="M-34 1114q0 44 18 106q18 50 34 102q18 62 44 216q26 138 52 212q22 68 87 110t139 42q120 0 120 -98q0 -66 -84 -330q-78 -234 -122 -334q-52 -122 -182 -122q-106 0 -106 96zM400 1160q0 34 48 206q26 144 98 426q24 68 89 110t137 42q120 0 120 -98q0 -64 -84 -328 q-76 -236 -120 -336q-54 -124 -182 -124q-106 0 -106 102z" />
<glyph unicode="#" horiz-adv-x="1730" d="M46 512q0 114 108 138q14 4 198 8q30 100 64 202q-24 -2 -44 -2q-80 0 -134 44t-54 122q0 88 58 124q44 28 132 30h144q48 154 150 458q58 154 254 154q98 0 98 -72q0 -58 -84 -256q-58 -134 -116 -270q184 14 326 44q30 124 61 244t87 230q14 34 106 56q76 18 142 18 q100 0 100 -78q0 -48 -54 -186q-38 -96 -78 -190q44 12 62 12q60 0 98 -62q32 -52 32 -118q0 -108 -104 -144q-12 -4 -196 -30q-18 -68 -50 -182q72 18 90 18q56 0 92 -64q30 -54 30 -116q0 -106 -98 -140q-22 -8 -190 -32q-10 -98 -22 -196q-16 -118 -40 -194 q-20 -58 -100 -96q-70 -36 -138 -36q-106 0 -106 88q0 60 34 190q24 98 50 196q-160 -24 -386 -48q-18 -80 -64 -348q-16 -58 -91 -98t-139 -40q-118 0 -118 96q0 38 100 356q-38 -4 -54 -4q-70 0 -113 52t-43 122zM648 672q202 14 374 50l50 218q-134 -18 -356 -44 q-34 -102 -68 -224z" />
<glyph unicode="$" horiz-adv-x="1918" d="M52 160q0 62 64 150t120 88q30 0 74 -56q56 -74 112 -106q94 -56 252 -56q58 260 130 556q-144 8 -430 30q-154 18 -154 140q0 208 318 478q262 226 516 328q38 134 44 150q30 74 92 126q84 68 204 68q96 0 96 -82q0 -42 -46 -162q108 14 142 14q136 0 136 -100 q0 -20 -15 -149t-19 -143q-18 -58 -100 -114t-144 -56q-82 0 -82 178h-18h-26q-58 -180 -108 -354q134 -10 270 -22q166 -18 262 -56q62 -26 62 -112q0 -100 -56 -200q-260 -472 -792 -708q-8 -98 -24 -134q-24 -56 -96 -98q-84 -46 -150 -46q-94 0 -94 96q0 30 10 66 q-134 -26 -210 -26q-202 0 -300 186q-40 74 -40 126zM638 1088q14 18 30 18q122 0 226 2q32 116 62 234q-84 -46 -178 -114q-130 -94 -140 -140zM1002 258q110 52 222 152q136 126 136 218q0 36 -256 76q-50 -196 -102 -446z" />
<glyph unicode="%" horiz-adv-x="1932" d="M-16 -6q10 36 622 702q-132 -32 -250 -32q-136 0 -220 46q-108 60 -108 182q0 236 398 614q288 274 556 274q128 0 226 -92q90 -84 126 -214q84 90 258 264q90 84 188 84q64 0 118 -32q64 -38 64 -98q0 -42 -40 -88q-30 -38 -86 -86q-90 -76 -92 -78q-148 -134 -330 -312 q142 -10 250 -144q100 -128 100 -276q0 -194 -182 -364q-156 -148 -404 -242q-230 -88 -416 -88q-212 0 -290 106q-132 -166 -136 -172q-92 -94 -186 -94q-166 0 -166 120v20zM406 1090q0 -72 88 -112q68 -28 152 -28q160 0 266 84q116 90 116 244q0 176 -148 176 q-116 0 -290 -124q-184 -130 -184 -240zM802 450q0 -72 90 -112q70 -30 152 -30q158 0 266 74q126 84 126 232q0 80 -38 134q-42 62 -118 62q-110 0 -290 -128q-188 -132 -188 -232z" />
<glyph unicode="&#x26;" horiz-adv-x="1860" d="M58 280q0 378 620 672q-84 82 -84 202q0 256 368 560q190 158 408 158t336 -180q62 -98 62 -168q0 -56 -38 -114q-42 -64 -96 -64q-26 0 -123 81t-185 81q-132 0 -262 -112t-130 -244q0 -56 112 -66q138 -12 178 -50q50 -50 50 -120q0 -154 -180 -182q-136 -14 -272 -30 q-146 -26 -242 -118q-122 -116 -122 -232q0 -108 110 -170q92 -52 208 -52q196 0 508 146q40 136 58 308q6 74 10 148q10 98 24 140q20 54 102 94q72 34 136 34q104 0 104 -80q0 -112 -104 -524q-88 -340 -152 -542q-22 -74 -97 -122t-155 -48q-100 0 -100 82q0 30 58 174 q-242 -88 -456 -88q-236 0 -422 96q-232 118 -232 330z" />
<glyph unicode="'" horiz-adv-x="764" d="M92 1232q0 50 70 142q54 74 166 248q104 162 167 243t165 81q60 0 104 -30q52 -34 52 -92q0 -14 -2 -26q-10 -36 -210 -298q-188 -244 -248 -308q-64 -70 -130 -70q-52 0 -93 29t-41 81z" />
<glyph unicode="(" horiz-adv-x="1284" d="M-88 550q0 390 490 830q194 172 390 318q300 222 414 222q62 0 116 -41t54 -101q0 -50 -52 -98q-42 -42 -132 -88q-128 -66 -142 -74q-306 -188 -524 -404q-308 -302 -308 -550q0 -284 400 -424q80 -18 204 -68q50 -38 50 -98q0 -74 -58 -156t-128 -86q-196 106 -392 210 q-218 132 -308 308q-74 146 -74 300z" />
<glyph unicode=")" horiz-adv-x="1574" d="M26 -120q0 48 50 94q44 40 132 86q126 66 142 76q310 192 524 402q306 304 306 550q0 152 -128 272q-106 98 -270 154q-52 14 -106 28q-70 20 -96 40q-50 36 -50 96q0 74 59 158t129 88q144 -68 410 -218q364 -240 364 -598q0 -396 -494 -834q-196 -174 -390 -316 q-298 -222 -412 -222q-62 0 -116 42t-54 102z" />
<glyph unicode="*" horiz-adv-x="840" d="M-34 1266q0 54 118 122q86 44 170 86q-90 48 -196 114q-14 20 -14 50q0 54 45 118t97 64q18 0 164 -104q0 48 14 140q14 42 74 72q54 28 104 28q80 0 80 -72q0 -22 -36 -180q146 122 182 122q50 0 91 -39t41 -89q0 -12 -2 -20q-8 -32 -250 -196q118 -88 118 -158 q0 -50 -44 -108t-92 -58q-20 0 -146 128q-38 -146 -60 -182q-52 -88 -160 -88q-80 0 -80 62q0 30 34 122q-76 -50 -124 -50q-46 0 -87 35t-41 81z" />
<glyph unicode="+" horiz-adv-x="1574" d="M110 778q0 58 28 105t80 51q106 -4 194 -4q104 0 202 6l28 196q18 116 42 191t98 124t152 49q94 0 94 -72q0 -42 -50 -220q-62 -220 -66 -238q22 4 210 58q134 38 212 38q54 0 86 -58q26 -48 26 -108q0 -128 -92 -156t-240 -44l-248 -24v-8q0 -40 3 -117t3 -115 q0 -80 -8 -108q-18 -60 -99 -104t-149 -44q-96 0 -96 102q0 76 48 366q-302 -28 -320 -28q-66 0 -102 48t-36 114z" />
<glyph unicode="," horiz-adv-x="1186" d="M226 -254q0 50 68 140q54 72 166 248q104 160 169 242t165 82q60 0 106 -30q52 -36 52 -94q0 -14 -2 -24q-8 -36 -210 -296q-186 -238 -250 -308t-128 -70q-52 0 -94 30t-42 80z" />
<glyph unicode="-" horiz-adv-x="1676" d="M150 728q0 114 90 144q42 12 184 12q252 0 464 36q50 8 266 70q198 58 226 58q56 0 88 -58q28 -48 28 -108q0 -114 -80 -150t-546 -102q-452 -66 -574 -66q-66 0 -106 49t-40 115z" />
<glyph unicode="." d="M244 56q0 80 98 316q34 82 190 82q148 0 148 -76q0 -28 -68 -168q-64 -130 -90 -168q-48 -72 -164 -72q-114 0 -114 86z" />
<glyph unicode="/" horiz-adv-x="1702" d="M-156 -14q0 56 110 176q78 80 156 162q614 674 1088 1170q82 92 258 266q86 74 198 74q68 0 114 -28q56 -34 56 -96q0 -18 -2 -30q-12 -38 -164 -180q-100 -90 -200 -178q-616 -570 -1072 -1116q-68 -90 -216 -264q-68 -70 -142 -70q-64 0 -116 26q-68 32 -68 88z" />
<glyph unicode="0" horiz-adv-x="2324" d="M72 528q0 336 226 652q210 294 547 481t667 187q310 0 516 -174q218 -186 218 -492q0 -334 -226 -650q-210 -296 -547 -482t-667 -186q-312 0 -516 174q-218 184 -218 490zM470 630q0 -218 132 -355t348 -137q334 0 606 292q266 286 266 622q0 218 -131 356t-347 138 q-334 0 -604 -290t-270 -626z" />
<glyph unicode="1" horiz-adv-x="698" d="M38 14q0 130 48 318q42 156 86 312q98 404 162 654q-112 -48 -138 -48q-52 0 -82 56q-28 46 -28 102q0 22 6 38q22 74 128 124q76 38 216 90q166 62 212 62q100 0 100 -76q0 -32 -48 -160q-228 -616 -296 -1206l-16 -188q-20 -88 -128 -130q-72 -30 -138 -30 q-84 0 -84 82z" />
<glyph unicode="2" horiz-adv-x="1858" d="M10 278q0 238 140 400q148 172 382 172q290 0 652 -264q330 352 330 628q0 284 -318 284q-160 0 -334 -84q-60 -28 -268 -154q-136 -84 -202 -84q-94 0 -94 76q0 80 178 248q384 366 764 366q266 0 432 -174t166 -440q0 -434 -428 -870q110 -112 110 -166q0 -46 -72 -80 q-62 -30 -112 -30q-58 0 -150 74q-470 -380 -752 -380q-198 0 -316 144q-108 132 -108 334zM286 226q0 -78 120 -78q206 0 452 156q78 50 78 64q0 6 -206 112q-126 64 -208 64q-158 0 -220 -234q-16 -54 -16 -84z" />
<glyph unicode="3" horiz-adv-x="1872" d="M80 30q0 64 36 122q42 66 104 66q24 0 86 -28q152 -68 328 -68q212 0 436 130q256 148 256 344q0 148 -186 148q-48 0 -148 -18t-150 -18q-130 0 -130 88q0 104 130 208q52 44 158 74q116 34 152 58q74 46 100 144q6 26 6 50q0 74 -51 116t-125 42q-86 0 -190 -66 q-18 -12 -166 -122q-88 -64 -132 -64q-68 0 -68 78q0 116 174 282q114 110 258 186q164 86 300 86q154 0 268 -136q106 -130 106 -288q0 -228 -248 -422q342 -124 342 -358q0 -230 -222 -434q-192 -176 -492 -290q-280 -106 -500 -106q-88 0 -200 20q-132 26 -182 64 t-50 112z" />
<glyph unicode="4" horiz-adv-x="1918" d="M104 462q0 30 32 112q18 50 34 128q14 64 26 128q56 234 128 512q30 120 44 152q34 80 94 124q72 52 162 52q94 0 94 -78q0 -58 -66 -240q-44 -126 -90 -254q-52 -172 -98 -370q364 100 698 132q80 340 150 610q26 94 38 122q28 60 84 96q70 46 150 46q100 0 100 -78 q0 -36 -42 -150q-108 -284 -188 -630q74 4 102 4q70 0 140 -44q76 -50 76 -118q0 -88 -156 -122q-54 -12 -230 -26q-10 -50 -24 -250q-12 -156 -42 -246q-20 -56 -100 -96q-72 -36 -140 -36q-104 0 -104 94q0 102 38 250q34 122 68 246q-222 -36 -392 -78q-14 -4 -242 -74 q-178 -54 -222 -54q-122 0 -122 136z" />
<glyph unicode="5" horiz-adv-x="1522" d="M-118 108q0 54 26 98q32 52 80 52q22 0 90 -26q170 -70 352 -70q188 0 360 106q196 122 196 298q0 102 -82 162q-72 56 -178 56q-48 0 -145 -20t-147 -20q-142 0 -142 198q0 4 6 502q2 88 32 139t108 85q376 166 934 166q128 0 198 -60q62 -52 62 -108q0 -36 -28 -70 q-36 -40 -170 -54q-262 -30 -376 -46q-210 -34 -370 -84l-16 -328q648 -42 648 -494q0 -250 -234 -458q-302 -270 -688 -270q-186 0 -318 42q-198 62 -198 204z" />
<glyph unicode="6" horiz-adv-x="1950" d="M86 508q0 310 172 594q158 264 430 452q332 232 780 232q144 0 166 -96l16 -216q2 -12 16 -62q12 -38 12 -62q0 -68 -79 -127t-149 -59q-68 0 -100 88q-10 28 -32 144q-384 -66 -626 -282q-212 -190 -286 -386q684 220 1050 220q352 0 352 -210q0 -214 -304 -462 q-242 -196 -498 -296q-210 -80 -386 -80q-258 0 -402 178q-132 164 -132 430zM402 394q72 -142 290 -142q114 0 256 40q116 32 292 114q228 110 228 176q0 40 -136 40q-220 0 -930 -228z" />
<glyph unicode="7" horiz-adv-x="1408" d="M14 1444q0 154 168 216q192 70 730 70q378 0 500 -48q76 -32 120 -108q26 -44 26 -72t-44 -80q-318 -390 -456 -576q-236 -314 -406 -614q-34 -76 -120 -218q-54 -72 -166 -72q-62 0 -104 26q-50 32 -50 88q0 72 918 1342q-86 2 -166 2q-332 0 -636 -50q-4 -2 -96 -22 q-58 -12 -98 -12q-120 0 -120 128z" />
<glyph unicode="8" horiz-adv-x="2052" d="M100 36q0 178 204 424q148 180 352 340q-152 62 -152 222q0 220 396 590q120 112 256 186q162 88 298 88q154 0 268 -136q110 -128 110 -286q0 -234 -250 -430q128 -64 209 -194t81 -270q0 -244 -246 -442q-206 -164 -538 -266q-292 -90 -528 -90q-460 0 -460 264z M508 278q0 -94 154 -144q110 -36 232 -36q204 0 364 84q200 102 200 288q0 272 -242 272q-248 0 -544 -240q-164 -134 -164 -224zM878 1186q0 -68 86 -102q64 -26 146 -26q156 0 266 78q126 86 126 236q0 78 -32 130q-38 62 -110 62q-118 0 -296 -130q-186 -138 -186 -248z " />
<glyph unicode="9" horiz-adv-x="1854" d="M58 774q0 274 510 708q158 134 346 222q216 100 396 100q190 0 318 -118q198 -182 198 -394q0 -90 -56 -226q-178 -422 -242 -794q-10 -66 -20 -134q-14 -80 -32 -132q-24 -60 -103 -103t-149 -43q-102 0 -102 84q0 8 34 140q38 194 126 584q-384 -184 -782 -184 q-442 0 -442 290zM460 996q0 -96 156 -146q112 -36 234 -36q206 0 364 84q198 104 198 290q0 272 -244 272q-248 0 -544 -242q-164 -134 -164 -222z" />
<glyph unicode=":" horiz-adv-x="826" d="M98 24q0 86 98 316q34 82 190 82q148 0 148 -76q0 -28 -68 -168q-64 -130 -90 -168q-50 -72 -164 -72t-114 86zM346 724q0 36 40 158q34 100 60 160q34 82 186 82t152 -74q0 -26 -70 -170q-64 -136 -88 -170q-50 -70 -164 -70q-116 0 -116 84z" />
<glyph unicode=";" horiz-adv-x="1024" d="M76 -286q0 48 70 140q58 78 165 244t169 247t166 81q60 0 104 -30q52 -34 52 -92q0 -16 -2 -26q-10 -38 -210 -298q-186 -240 -250 -308t-128 -68q-52 0 -94 29t-42 81zM510 740q0 84 98 318q34 82 188 82q152 0 152 -74q0 -26 -70 -170q-66 -136 -90 -170 q-48 -70 -164 -70q-114 0 -114 84z" />
<glyph unicode="&#x3c;" horiz-adv-x="1626" d="M-108 722q0 68 60 154t124 94q224 158 1148 770q80 56 244 160q64 36 108 36q62 0 114 -46t52 -106q0 -48 -50 -94q-44 -38 -126 -80q-68 -32 -134 -66q-612 -344 -1100 -744q126 -102 714 -594q60 -50 122 -100q72 -72 72 -132t-61 -146t-119 -86q-38 0 -126 92 q-56 62 -112 126q-148 160 -340 318q-212 174 -380 268q-64 32 -130 66q-80 50 -80 110z" />
<glyph unicode="=" horiz-adv-x="1724" d="M172 552q0 122 108 146q38 10 96 10h98q274 10 436 36q50 8 266 70q202 58 228 58q54 0 88 -60q30 -52 30 -112q0 -108 -84 -144t-546 -104q-450 -68 -574 -68q-64 0 -105 50t-41 118zM180 1020q0 114 96 144q42 14 188 14q354 0 716 104q212 62 230 62q56 0 90 -58 q28 -50 28 -110q0 -112 -81 -148t-549 -106q-452 -66 -572 -66q-66 0 -106 48t-40 116z" />
<glyph unicode="&#x3e;" horiz-adv-x="1894" d="M22 -102q0 104 106 182q12 8 222 130q346 204 1046 600q-288 412 -696 738q-68 44 -184 146q-22 26 -22 54q0 72 86 128q76 52 150 52t148 -68l116 -124q282 -288 368 -378q206 -214 358 -388q88 -14 88 -168q0 -108 -84 -158q-68 -30 -198 -88q-554 -252 -1234 -716 q-140 -98 -178 -98q-92 0 -92 156z" />
<glyph unicode="?" horiz-adv-x="1686" d="M-120 58q0 18 10 46q22 70 46 140t64 98q48 34 146 34q150 0 150 -68q0 -16 -62 -133t-84 -139q-50 -48 -152 -48q-118 0 -118 70zM128 672q0 88 96 302q22 48 47 65t79 17h98q66 -2 100 -2q444 0 628 132q176 126 176 246q0 110 -152 186q-126 64 -250 64 q-128 0 -290 -68q-90 -36 -248 -124q-122 -68 -148 -68q-58 0 -58 66q0 218 380 374q314 128 570 128q234 0 422 -116q218 -136 218 -356q0 -372 -506 -578q-350 -144 -824 -178q-56 -106 -74 -126q-42 -42 -140 -42q-124 0 -124 78z" />
<glyph unicode="@" horiz-adv-x="2274" d="M56 430q0 316 244 664q228 326 574 544q358 226 674 226q286 0 475 -178t189 -464q0 -318 -244 -664q-230 -324 -576 -540q-358 -224 -674 -224q-286 0 -474 175t-188 461zM428 538q0 -194 96 -322q108 -140 296 -140q166 0 372 104q272 138 440 368q182 250 182 540 q0 194 -98 324q-108 140 -298 140q-168 0 -372 -104q-274 -140 -438 -370q-180 -250 -180 -540zM552 420q0 174 250 428q208 212 464 212q58 0 120 -10q4 64 -82 64q-62 0 -181 -24t-179 -24q-52 0 -84 40t-32 92q0 22 6 38q20 64 122 92q210 60 424 60q138 0 192 -40 q64 -46 64 -178q0 -74 -20 -176q-18 -88 -36 -174q-36 -180 -92 -282q-68 -126 -202 -214q-186 -122 -424 -122q-124 0 -208 46q-102 56 -102 172zM820 556q0 -40 54 -66q44 -20 88 -20q96 0 200 62q116 72 116 160q0 38 -21 74t-57 36q-68 0 -220 -90q-160 -96 -160 -156z " />
<glyph unicode="A" horiz-adv-x="2010" d="M58 46q0 70 84 166q66 74 134 146q222 258 478 646q216 340 432 678q86 132 230 132q82 0 108 -76q4 -18 16 -144q68 -734 222 -1202l44 -124q28 -80 28 -124q0 -74 -91 -138t-167 -64q-74 0 -106 110q-12 40 -28 172q-420 -94 -1026 -200q-126 -184 -202 -184 q-72 0 -116 70q-40 62 -40 136zM674 396q380 64 714 172q-38 260 -116 728q-132 -190 -598 -900z" />
<glyph unicode="B" horiz-adv-x="1802" d="M46 -4q0 60 54 314q50 228 154 646q-72 18 -72 124q0 96 62 178q30 42 136 138q214 194 392 288q228 118 470 118q222 0 362 -94q162 -110 162 -322q0 -366 -440 -616q120 -52 196 -138q88 -100 88 -216q0 -292 -514 -450q-262 -80 -662 -80q-246 0 -304 18 q-84 26 -84 92zM394 222q212 -14 370 -14q332 0 446 60q108 56 108 102q0 78 -204 132q-160 42 -272 42q-216 0 -418 -120q-16 -106 -30 -202zM510 812q564 20 776 188q178 138 178 256q0 98 -120 156q-98 46 -208 46q-220 0 -514 -232q-58 -194 -112 -414z" />
<glyph unicode="C" horiz-adv-x="1772" d="M-38 338q0 112 30 222q144 522 638 886q488 358 1034 358q148 0 148 -84q0 -18 -22 -126q-8 -36 -8 -184q0 -102 -124 -174q-96 -56 -150 -56q-82 0 -82 152q0 18 4 82q-482 -80 -798 -358q-362 -316 -362 -566q0 -128 108 -190q86 -50 224 -50q148 0 380 88 q118 46 370 168q188 88 228 88q66 0 66 -78q0 -98 -78 -164q-16 -14 -162 -100q-602 -356 -1000 -356q-212 0 -328 116t-116 326z" />
<glyph unicode="D" horiz-adv-x="1968" d="M26 -34q0 44 72 354q60 266 174 730q-14 32 -14 70q0 92 74 176q84 98 274 218q168 108 310 170q254 108 474 108q258 0 430 -162t172 -418q0 -492 -522 -854q-418 -290 -978 -394q-82 -14 -244 -44q-132 -32 -142 -32q-80 0 -80 78zM394 252q344 36 612 144 q338 136 494 368q104 150 104 306q0 172 -115 275t-289 103q-270 0 -588 -238q-162 -498 -218 -958z" />
<glyph unicode="E" horiz-adv-x="1840" d="M-18 -26q0 54 40 248q32 150 100 430q-56 36 -56 104q0 60 38 121t92 85q40 170 124 492q20 78 34 104q24 46 76 78q30 18 130 48q294 84 344 96q168 38 360 38q126 0 187 -17t105 -76t44 -121q0 -128 -192 -150q-206 -22 -412 -46q-180 -28 -410 -116q-38 -114 -74 -238 q508 132 954 132q76 0 110 -8q50 -12 98 -50q64 -52 64 -108q0 -16 -4 -26q-26 -82 -196 -100q-728 -84 -1116 -200q-54 -240 -82 -466q200 2 462 52l456 100q54 12 80 12q104 0 104 -76q0 -62 -61 -139t-123 -107q-208 -106 -530 -162q-280 -50 -556 -50q-190 0 -190 116z " />
<glyph unicode="F" horiz-adv-x="1692" d="M-22 -24q0 38 44 234q32 148 102 432q-54 34 -54 106q0 62 38 127t92 85q36 148 98 394q10 54 40 158q28 74 90 112q38 24 134 52q294 84 346 96q166 38 358 38q128 0 189 -17t105 -75t44 -120q0 -130 -194 -152l-414 -46q-182 -30 -410 -114q-36 -118 -68 -232 q460 124 864 124q132 0 198 -60q58 -50 58 -106q0 -38 -28 -70q-36 -42 -160 -56q-652 -78 -1024 -194q-16 -68 -42 -344q-24 -228 -62 -324q-22 -58 -97 -97t-143 -39q-104 0 -104 88z" />
<glyph unicode="G" horiz-adv-x="2136" d="M56 328q0 118 34 238q144 516 638 874q484 354 1026 354q148 0 148 -86q0 -20 -18 -114q-10 -46 -10 -176q0 -70 -28 -111t-96 -81q-92 -54 -146 -54q-64 0 -80 92q-4 28 -4 94v48q-602 -100 -982 -546q-182 -216 -182 -380q0 -122 94 -182q80 -52 208 -52q138 0 328 54 q122 36 254 92q106 44 234 114q188 104 188 150q0 36 -72 36q-318 0 -892 -124q-66 -14 -92 -14q-84 0 -84 76q0 74 86 162q76 76 154 110q102 44 360 74q214 24 372 24q524 0 524 -212q0 -192 -420 -472q-652 -434 -1082 -434q-220 0 -340 115t-120 331z" />
<glyph unicode="H" horiz-adv-x="1838" d="M-2 -32q0 32 20 114q44 190 140 688q82 436 148 684q24 94 44 126q28 52 100 90t156 38q108 0 108 -84q0 -40 -32 -130q-84 -230 -150 -474q392 112 764 136q34 148 116 440q70 208 302 208q104 0 104 -78q0 -12 -4 -28q-88 -206 -194 -552q122 -58 122 -148 q0 -64 -72 -98q-56 -26 -130 -28q-94 -354 -120 -550q-10 -92 -20 -182q-24 -92 -114 -136q-66 -34 -136 -34q-104 0 -104 86q0 80 32 198q28 98 54 196q30 128 88 386q-424 -60 -780 -180q-64 -296 -82 -534q-8 -96 -26 -130q-24 -50 -99 -83t-135 -33q-100 0 -100 92z" />
<glyph unicode="I" horiz-adv-x="1428" d="M-110 -2q0 32 10 70q38 138 196 138q22 0 68 -3t70 -3q64 0 116 4q80 394 272 1144q-208 -82 -252 -82q-108 0 -108 142q0 84 42 158t112 110q310 156 730 156q160 0 240 -30q132 -48 132 -180q0 -62 -34 -100q-38 -46 -160 -54t-366 -28q-218 -634 -284 -1186 q96 26 194 52q116 30 196 30q88 0 88 -60q0 -54 -57 -125t-111 -99q-156 -80 -426 -130q-244 -46 -446 -46q-102 0 -146 14q-76 28 -76 108z" />
<glyph unicode="J" horiz-adv-x="1878" d="M-8 580q0 138 36 254q46 146 200 146q98 0 98 -138q0 -32 -4 -93t-4 -91q0 -188 109 -299t297 -111q170 0 335 101t243 253q68 134 135 393t67 401q0 64 0 52q-2 28 -28 28q-82 0 -239 -35t-239 -35q-70 0 -70 76q0 78 60 155t134 105q162 64 520 64q144 0 196 -24 q86 -38 86 -162q0 -214 -128 -572q-112 -308 -246 -542q-152 -260 -396 -422q-260 -172 -546 -172q-284 0 -454 196q-162 186 -162 472z" />
<glyph unicode="K" horiz-adv-x="1648" d="M-124 16q0 32 22 122q104 452 326 1354q26 102 46 134q30 58 104 96t162 38q108 0 108 -80q0 -46 -42 -152q-32 -78 -64 -154q-74 -200 -146 -458q656 490 1016 726q106 70 206 70q152 0 152 -88q0 -20 -4 -30q-18 -46 -138 -132q-58 -40 -576 -428q-320 -240 -500 -380 q292 -272 610 -424q50 -24 102 -46q66 -38 66 -80q0 -58 -118 -110q-102 -46 -172 -46q-56 0 -452 154q-200 78 -330 190q-18 -166 -26 -190q-28 -100 -114 -144q-64 -32 -136 -32q-102 0 -102 90z" />
<glyph unicode="L" horiz-adv-x="1548" d="M28 30q0 108 154 770q152 650 202 778q70 168 246 168q104 0 104 -78q0 -38 -40 -144q-242 -646 -308 -1236q192 2 390 36q100 16 264 54q198 48 262 62q50 10 82 10q104 0 104 -78q0 -66 -62 -142q-54 -66 -120 -100q-186 -100 -528 -160q-298 -54 -556 -54 q-194 0 -194 114z" />
<glyph unicode="M" horiz-adv-x="2400" d="M8 42q0 64 60 154q52 70 104 138q178 254 380 622q172 322 344 646q72 134 182 134q88 0 88 -170q0 -36 -4 -110t-4 -110q0 -324 50 -780q236 386 454 810q56 120 176 358q70 134 178 134q92 0 92 -198q0 -50 -14 -190v2q-4 -296 -4 -406q0 -406 36 -676q10 -60 20 -118 q12 -72 12 -120q0 -74 -89 -159t-163 -85q-44 0 -72 46q-18 30 -30 518q-6 292 -12 586q-176 -310 -324 -586q-84 -158 -168 -314q-130 -240 -174 -282q-56 -52 -98 -52q-58 0 -94 74q-28 60 -28 128q0 52 18 94q-8 158 -36 868q-132 -230 -544 -928q-78 -130 -86 -142 q-66 -94 -120 -94q-64 0 -100 76q-30 62 -30 132z" />
<glyph unicode="N" horiz-adv-x="1818" d="M-136 -78q0 30 22 114q14 62 30 122q166 746 290 1216q36 134 66 178q48 72 160 100q50 12 92 12q78 0 104 -46l612 -1034q6 14 160 506l80 304q56 202 128 304q98 138 244 138q96 0 96 -74q0 -42 -62 -182q-340 -760 -440 -1400q-16 -106 -32 -136q-26 -54 -106 -84 q-56 -20 -130 -20q-104 0 -104 58q0 8 4 16l-632 1024q-170 -530 -216 -886q-10 -86 -20 -174q-22 -78 -118 -118q-68 -30 -128 -30q-100 0 -100 92z" />
<glyph unicode="O" horiz-adv-x="2324" d="M72 528q0 336 226 652q210 294 547 481t667 187q310 0 516 -174q218 -186 218 -492q0 -334 -226 -650q-210 -296 -547 -482t-667 -186q-312 0 -516 174q-218 184 -218 490zM470 630q0 -218 132 -355t348 -137q334 0 606 292q266 286 266 622q0 218 -131 356t-347 138 q-334 0 -604 -290t-270 -626z" />
<glyph unicode="P" horiz-adv-x="1686" d="M-96 -46q0 48 66 338q64 274 184 744q-12 32 -12 68q0 88 66 174q76 96 244 220q156 114 280 176q268 132 486 132q220 0 370 -120q164 -130 164 -344q0 -426 -540 -704q-388 -200 -916 -274l-12 -176q-10 -110 -34 -174t-102 -104q-70 -34 -148 -34q-96 0 -96 78z M354 680q598 26 826 216q198 164 198 310q0 116 -124 188q-106 60 -230 60q-226 0 -526 -234q-82 -264 -144 -540z" />
<glyph unicode="Q" horiz-adv-x="2330" d="M76 522q0 336 222 652q210 298 544 486t666 188q312 0 518 -172q222 -182 222 -490q0 -264 -148 -524q-130 -232 -352 -422q142 -62 142 -130q0 -52 -64 -92q-56 -38 -110 -38q-52 0 -226 80q-336 -194 -682 -194q-314 0 -516 168q-216 180 -216 488zM472 632 q0 -220 131 -357t347 -137q134 0 272 60q-388 236 -388 488q0 76 54 172q60 108 128 108q34 0 72 -48l204 -272q120 -158 232 -248q134 128 214 292q88 178 88 350q0 218 -124 360q-130 150 -344 150q-338 0 -612 -290t-274 -628z" />
<glyph unicode="R" horiz-adv-x="1710" d="M-66 -28q0 52 64 332q46 202 170 698q-70 44 -70 142q0 86 106 184q506 474 972 474q228 0 388 -122q174 -132 174 -352q0 -346 -382 -602q-286 -190 -700 -290q174 -106 318 -158q54 -12 156 -46q62 -30 62 -74q0 -56 -62 -103t-120 -47q-138 0 -364 72 q-202 64 -346 140q0 -70 -22 -206q-20 -60 -91 -98t-139 -38q-114 0 -114 94zM382 690q584 22 810 212q200 166 200 316q0 116 -120 186q-102 58 -224 58q-224 0 -524 -234q-82 -262 -142 -538z" />
<glyph unicode="S" horiz-adv-x="2052" d="M34 322q0 84 26 152q36 92 106 92q74 0 114 -92q56 -132 104 -174q104 -94 336 -94q210 0 396 84q202 90 312 254q50 74 50 110q0 14 -28 28q-130 58 -512 82l-548 28q-172 16 -172 146q0 178 302 438q550 474 1172 474q148 0 148 -98q0 -36 -10 -150q-12 -120 -18 -142 q-18 -58 -107 -113t-151 -55q-90 0 -92 106l-2 70l-30 2h-9q-205 0 -403 -90q-194 -90 -340 -250q10 2 160 4h38q144 0 512 -30q418 -36 498 -68q68 -28 68 -118q0 -100 -54 -194q-204 -356 -627 -600t-833 -244q-158 0 -232 54q-82 60 -130 174q-44 104 -44 214z" />
<glyph unicode="T" horiz-adv-x="1676" d="M58 1410q0 178 168 254q348 156 892 156q412 0 412 -222q0 -50 -36 -90q-42 -44 -182 -52q-266 -14 -422 -26q-220 -652 -284 -1198q-8 -88 -16 -178q-22 -80 -118 -124q-72 -32 -134 -32q-98 0 -98 82q0 48 82 396q112 482 240 986q-326 -108 -374 -108q-62 0 -98 48 q-32 42 -32 108z" />
<glyph unicode="U" horiz-adv-x="1770" d="M-72 22q0 32 18 104q86 398 276 1186q22 98 84 286q74 164 274 164q114 0 114 -80q0 -38 -44 -146q-124 -304 -222 -670q-122 -453 -122 -535v-7v-10l2 4q98 2 424 122q252 92 432 174q100 462 162 694q20 74 38 146q24 86 50 144q34 74 110 119t160 45q118 0 118 -86 q0 -46 -46 -160q-34 -82 -68 -162q-208 -562 -274 -1050q-12 -100 -24 -198q-26 -102 -122 -148q-62 -30 -136 -30q-102 0 -102 84q0 24 48 222q-182 -84 -506 -188q-370 -118 -512 -118q-132 0 -132 94z" />
<glyph unicode="V" horiz-adv-x="1288" d="M10 1460q0 172 24 224q44 90 200 90q104 0 104 -146q0 -38 -8 -98q-10 -78 -12 -98q-14 -174 -14 -394q0 -292 32 -570q98 158 296 476l188 308q112 182 204 300q84 110 216 110q52 0 90 -20q50 -26 50 -72q0 -36 -88 -154q-62 -76 -122 -152q-346 -470 -604 -1024 q-32 -84 -108 -240q-56 -84 -208 -84q-76 0 -114 14q-52 22 -72 84q-10 34 -24 314q-30 632 -30 1132z" />
<glyph unicode="W" horiz-adv-x="1984" d="M-12 1494q0 86 87 174t171 88q42 0 68 -47t30 -269q-1 47 -2 47q-2 0 -2 -339q0 -220 14 -546q134 234 488 780q152 234 264 234q88 0 88 -172q0 -76 34 -398q18 -184 30 -376q140 242 570 968q66 112 74 122q56 78 106 78q66 0 104 -74q30 -60 30 -134q0 -64 -82 -180 q-206 -288 -428 -676q-112 -198 -380 -704q-72 -134 -180 -134q-66 0 -81 96q-14 90 -14 270v24v26q0 178 -13 268q-18 118 -52 352q-356 -570 -602 -1034q-70 -132 -180 -132q-58 0 -76 60q-8 30 -8 108q0 38 3 111t5 103q4 214 4 388q0 438 -38 712q-2 12 -20 104 q-12 62 -12 102z" />
<glyph unicode="X" horiz-adv-x="1578" d="M-98 10q0 16 2 24q10 40 648 798q-94 184 -190 366q-136 276 -136 358q0 84 65 175t145 91q46 0 76 -48q22 -36 44 -104q32 -106 32 -108q90 -246 192 -460q134 162 270 322q160 188 284 310q76 74 170 74q64 0 125 -38t61 -100q0 -40 -34 -86q-2 -2 -138 -134 q-278 -272 -598 -628q64 -122 94 -174q56 -96 108 -166q46 -54 122 -166q10 -22 10 -48q0 -76 -76 -172t-150 -96q-62 0 -142 164q-66 130 -198 392q-202 -238 -326 -408q-46 -70 -146 -202q-56 -62 -150 -62q-64 0 -114 33t-50 93z" />
<glyph unicode="Y" horiz-adv-x="1602" d="M-70 16v22q6 20 480 600l-184 376q-54 104 -106 210q-62 122 -94 212q-16 44 -16 78q0 70 74 166t142 96q40 0 74 -54q4 -10 56 -160q114 -328 280 -656q46 54 498 578q72 88 224 254q78 76 174 76q68 0 122 -38q62 -40 62 -106q0 -18 -2 -28q-14 -42 -152 -176 q-710 -692 -1132 -1264l-136 -196q-96 -120 -190 -120q-70 0 -118 30q-56 36 -56 100z" />
<glyph unicode="Z" horiz-adv-x="1884" d="M-32 96q0 60 56 128q36 44 100 102q52 46 104 94q352 336 1062 998h-24q-302 0 -646 -72q-32 -6 -54 -6q-64 0 -102 39t-38 103q0 158 172 220q252 90 628 90q224 0 380 -32q268 -56 268 -194q0 -76 -86 -158q-48 -48 -130 -108q-124 -92 -136 -102q-574 -454 -1058 -962 q76 -4 156 -4q198 0 810 56q50 6 76 6q130 0 130 -84q0 -64 -72 -126q-60 -52 -132 -76q-324 -102 -946 -102q-260 0 -374 28q-144 34 -144 162z" />
<glyph unicode="[" horiz-adv-x="1376" d="M-142 -226q0 34 34 134q0 6 38 176q210 936 402 1638q54 188 108 266q64 92 160 92h174q116 2 174 2q434 0 480 -25t46 -79q0 -68 -54 -154q-60 -94 -124 -94q-60 0 -185 33t-199 33q-70 0 -200 -16q-174 -494 -280 -896q-44 -162 -102 -478q-62 -328 -100 -480 q74 -8 134 -8q124 0 290 36q118 24 154 24q90 0 90 -134q0 -150 -94 -190q-62 -26 -472 -26q-60 0 -182 2h-182q-110 0 -110 144z" />
<glyph unicode="\" horiz-adv-x="1380" d="M252 1686q0 64 90 112q78 40 148 40q84 0 128 -48q30 -30 68 -120q196 -450 536 -1358q32 -74 62 -150q42 -108 42 -144q0 -70 -88 -112q-70 -34 -148 -34q-90 0 -134 124q-26 100 -52 198q-168 560 -480 1136q-52 88 -102 178q-70 128 -70 178z" />
<glyph unicode="]" horiz-adv-x="1426" d="M-110 -268q0 68 56 157t120 89q58 0 183 -31t203 -31q66 0 182 12q44 160 155 478t157 484q108 398 202 892q-104 12 -170 12q-100 0 -268 -38q-122 -26 -156 -26q-88 0 -88 132q0 152 92 194q60 26 478 26q60 0 180 -2h182q130 0 130 -146q0 -80 -36 -218 q-126 -490 -354 -1238l-126 -412q-20 -58 -54 -176q-2 -26 -12 -74q-20 -66 -68 -122q-56 -64 -116 -64h-172q-114 -2 -170 -2q-444 0 -487 25t-43 79z" />
<glyph unicode="_" horiz-adv-x="2296" d="M274 -124q0 174 146 174q86 0 380 -30q224 -22 420 -22q130 0 416 34q174 20 194 20q66 0 104 -49t38 -115q0 -136 -120 -164q-16 -4 -166 -8q-252 -10 -700 -10q-370 0 -538 16q-174 16 -174 154z" />
<glyph unicode="a" horiz-adv-x="1982" d="M30 22q0 70 84 166q66 74 134 146q222 258 478 646q216 340 432 678q86 132 230 132q82 0 108 -76q4 -18 16 -144q68 -734 222 -1202l44 -124q28 -80 28 -124q0 -74 -91 -138t-167 -64q-74 0 -106 110q-12 40 -28 172q-420 -94 -1026 -200q-126 -184 -202 -184 q-72 0 -116 70q-40 62 -40 136zM646 372q380 64 714 172q-38 260 -116 728q-132 -190 -598 -900z" />
<glyph unicode="b" horiz-adv-x="1816" d="M42 -4q0 60 56 314q50 230 154 646q-72 18 -72 124q0 96 60 178q32 42 136 138q214 194 394 288q226 118 470 118q222 0 362 -94q162 -110 162 -322q0 -366 -440 -616q118 -52 194 -138q88 -100 88 -216q0 -292 -514 -450q-262 -82 -674 -82q-180 0 -220 6 q-156 20 -156 106zM392 222q210 -14 370 -14q330 0 444 60q108 56 108 102q0 78 -204 132q-160 42 -272 42q-216 0 -416 -120q-18 -106 -30 -202zM506 812q564 20 778 188q178 138 178 256q0 98 -122 156q-98 46 -208 46q-220 0 -512 -232q-60 -194 -114 -414z" />
<glyph unicode="c" horiz-adv-x="1772" d="M-38 338q0 112 30 222q144 522 638 886q488 358 1034 358q148 0 148 -84q0 -18 -24 -126q-6 -36 -6 -184q0 -102 -124 -174q-96 -56 -150 -56q-82 0 -82 152q0 18 4 82q-482 -80 -798 -358q-362 -316 -362 -566q0 -128 106 -190q88 -50 226 -50q148 0 380 88 q118 46 370 168q188 88 228 88q66 0 66 -78q0 -98 -78 -164q-16 -14 -162 -100q-604 -356 -1000 -356q-212 0 -328 116t-116 326z" />
<glyph unicode="d" horiz-adv-x="1968" d="M12 -34q0 44 72 354q60 266 174 730q-12 32 -12 70q0 92 72 176q84 98 274 218q168 108 310 170q254 108 476 108q258 0 429 -162t171 -418q0 -492 -522 -854q-418 -290 -976 -394q-84 -14 -246 -44q-132 -32 -142 -32q-80 0 -80 78zM382 252q342 36 610 144 q338 136 496 368q102 150 102 306q0 172 -115 275t-289 103q-270 0 -588 -238q-162 -498 -216 -958z" />
<glyph unicode="e" horiz-adv-x="1814" d="M-24 -26q0 54 40 248q32 150 98 430q-54 36 -54 104q0 60 38 121t92 85q38 170 124 492q20 78 34 104q22 46 74 78q30 18 132 48q294 84 344 96q166 38 358 38q128 0 189 -17t105 -76t44 -121q0 -128 -192 -150q-206 -22 -414 -46q-180 -28 -408 -116q-40 -114 -74 -238 q508 132 952 132q78 0 110 -8q50 -12 98 -50q64 -52 64 -108q0 -16 -2 -26q-28 -82 -196 -100q-728 -84 -1116 -200q-56 -240 -84 -466q200 2 462 52l456 100q56 12 82 12q104 0 104 -76q0 -62 -62 -139t-122 -107q-210 -106 -532 -162q-280 -50 -554 -50q-190 0 -190 116z " />
<glyph unicode="f" horiz-adv-x="1666" d="M-54 -24q0 38 44 234q32 148 102 432q-54 34 -54 106q0 62 38 127t92 85q36 148 98 394q10 54 40 158q28 74 90 112q38 24 134 52q294 84 346 96q166 38 358 38q126 0 188 -17t106 -75t44 -120q0 -130 -194 -152l-414 -46q-182 -30 -410 -114q-38 -118 -68 -232 q460 124 864 124q132 0 198 -60q58 -50 58 -106q0 -38 -28 -70q-36 -42 -160 -56q-652 -78 -1024 -194q-16 -68 -42 -344q-24 -228 -62 -324q-24 -58 -98 -97t-142 -39q-104 0 -104 88z" />
<glyph unicode="g" horiz-adv-x="2126" d="M46 328q0 118 32 238q146 516 638 874q486 354 1028 354q148 0 148 -84q0 -18 -20 -116q-8 -44 -8 -176q0 -70 -28 -111t-94 -81q-92 -54 -148 -54q-64 0 -80 92q-4 30 -4 95v47q-604 -100 -982 -546q-182 -214 -182 -386q0 -120 96 -178q78 -50 206 -50q138 0 328 56 q124 36 254 90q106 44 234 114q190 104 190 150q0 36 -72 36q-324 0 -894 -124q-66 -14 -92 -14q-86 0 -86 78q0 72 88 160q76 76 154 110q100 44 360 74q214 24 372 24q522 0 522 -212q0 -192 -416 -472q-650 -434 -1086 -434q-218 0 -338 115t-120 331z" />
<glyph unicode="h" horiz-adv-x="1754" d="M-18 -32q0 32 18 114q44 190 140 688q84 436 148 684q26 94 44 126q30 52 101 90t155 38q108 0 108 -84q0 -40 -32 -130q-82 -230 -150 -474q394 112 766 136q32 148 114 440q72 208 302 208q106 0 106 -78q0 -12 -4 -28q-90 -206 -196 -552q124 -58 124 -148 q0 -64 -74 -98q-54 -26 -130 -28q-94 -354 -120 -550q-10 -92 -20 -182q-22 -92 -114 -136q-64 -34 -136 -34q-104 0 -104 86q0 80 32 198l56 196q28 128 86 386q-422 -60 -778 -180q-66 -296 -84 -534q-6 -96 -24 -130q-26 -50 -101 -83t-133 -33q-100 0 -100 92z" />
<glyph unicode="i" horiz-adv-x="680" d="M-42 14q0 30 24 122q104 448 324 1340q28 112 46 144q32 64 106 101t162 37q110 0 110 -78q0 -48 -46 -162l-68 -164q-238 -650 -296 -1182q-10 -98 -26 -132q-26 -50 -102 -84q-66 -30 -128 -30q-106 0 -106 88z" />
<glyph unicode="j" horiz-adv-x="1858" d="M-32 580q0 138 36 254q48 146 202 146q96 0 96 -138q0 -32 -3 -93t-3 -91q0 -188 109 -299t295 -111q172 0 337 101t241 253q68 134 135 393t67 401q0 64 2 52q-4 28 -30 28q-82 0 -239 -35t-237 -35q-70 0 -70 76q0 78 59 155t135 105q160 64 518 64q146 0 198 -24 q86 -38 86 -162q0 -214 -130 -572q-112 -308 -246 -542q-150 -260 -394 -422q-262 -172 -548 -172q-282 0 -452 196q-164 186 -164 472z" />
<glyph unicode="k" horiz-adv-x="1648" d="M-124 16q0 32 22 122q104 452 326 1354q26 102 44 134q32 58 106 96t162 38q108 0 108 -80q0 -46 -42 -152q-32 -78 -66 -154q-72 -200 -146 -458q658 490 1018 726q106 70 206 70q152 0 152 -88q0 -20 -4 -30q-18 -46 -138 -132q-58 -40 -576 -428q-320 -240 -500 -380 q292 -272 608 -424q52 -24 104 -46q66 -38 66 -80q0 -58 -118 -110q-102 -46 -174 -46q-54 0 -450 154q-200 78 -332 190q-18 -166 -24 -190q-28 -100 -114 -144q-64 -32 -136 -32q-102 0 -102 90z" />
<glyph unicode="l" horiz-adv-x="1560" d="M26 32q0 78 94 492q106 464 226 928q28 106 42 140q32 72 92 110q72 44 148 44q102 0 102 -78q0 -38 -40 -144q-240 -646 -306 -1236q190 2 388 36q176 40 528 116q50 10 82 10q104 0 104 -78q0 -66 -62 -142q-56 -66 -122 -100q-188 -100 -526 -160q-298 -54 -554 -54 q-196 0 -196 116z" />
<glyph unicode="m" horiz-adv-x="2390" d="M-16 48q0 64 60 154q52 68 104 138q178 254 380 622l344 644q72 134 182 134q88 0 88 -170q0 -36 -3 -109t-3 -109q0 -324 48 -780q236 386 454 810q58 120 176 356q70 134 180 134q90 0 90 -196q0 -50 -14 -190v2q-4 -296 -4 -406q0 -408 36 -676l20 -120 q12 -70 12 -118q0 -76 -89 -161t-163 -85q-42 0 -72 48q-18 30 -30 516q-6 294 -10 588q-176 -310 -326 -586l-168 -316q-130 -238 -174 -280q-54 -52 -98 -52q-58 0 -94 74q-26 60 -26 126q0 54 18 94q-10 160 -38 870q-132 -230 -544 -930q-78 -128 -86 -140 q-66 -94 -120 -94q-64 0 -100 76q-30 60 -30 132z" />
<glyph unicode="n" horiz-adv-x="1818" d="M-136 -78q0 30 22 114q14 62 30 122q166 746 290 1216q36 134 66 178q48 72 160 100q50 12 92 12q78 0 104 -46l612 -1034q6 14 160 506l80 304q56 202 128 304q98 138 244 138q96 0 96 -74q0 -42 -62 -182q-342 -760 -440 -1400q-16 -106 -32 -136q-26 -54 -106 -84 q-56 -20 -130 -20q-104 0 -104 58q0 8 4 16l-632 1024q-170 -530 -216 -886q-10 -86 -20 -174q-22 -78 -118 -118q-68 -30 -128 -30q-100 0 -100 92z" />
<glyph unicode="o" horiz-adv-x="2310" d="M60 528q0 336 224 652q210 294 547 481t667 187q312 0 518 -174q218 -186 218 -492q0 -334 -226 -650q-210 -296 -548 -482t-668 -186q-312 0 -516 174q-216 184 -216 490zM456 630q0 -218 132 -355t350 -137q332 0 604 292q266 286 266 622q0 218 -130 356t-346 138 q-334 0 -605 -290t-271 -626z" />
<glyph unicode="p" horiz-adv-x="1678" d="M-106 -46q0 48 68 338q62 274 182 744q-12 32 -12 68q0 88 66 174q76 96 244 220q156 114 280 176q268 132 486 132q220 0 370 -120q164 -130 164 -344q0 -426 -540 -704q-388 -200 -916 -274l-12 -176q-10 -110 -34 -174t-102 -104q-68 -34 -148 -34q-96 0 -96 78z M344 680q598 26 826 216q198 164 198 310q0 116 -124 188q-106 60 -230 60q-226 0 -526 -234q-82 -264 -144 -540z" />
<glyph unicode="q" horiz-adv-x="2254" d="M56 522q0 336 224 652q208 298 543 486t665 188q314 0 520 -172q220 -182 220 -490q0 -264 -146 -524q-132 -232 -352 -422q140 -62 140 -130q0 -52 -60 -91t-112 -39q-54 0 -228 80q-334 -194 -682 -194q-312 0 -514 168q-218 180 -218 488zM452 632q0 -220 131 -357 t347 -137q134 0 272 60q-388 236 -388 488q0 76 54 172q60 108 128 108q34 0 72 -48l204 -272q122 -158 232 -248q134 128 214 292q88 178 88 350q0 218 -124 360q-130 150 -344 150q-336 0 -611 -290t-275 -628z" />
<glyph unicode="r" horiz-adv-x="1710" d="M-66 -28q0 52 64 332q46 202 170 698q-70 44 -70 142q0 86 106 184q506 474 972 474q228 0 388 -122q174 -132 174 -352q0 -346 -382 -602q-286 -190 -700 -290q174 -106 318 -158q54 -12 156 -46q62 -30 62 -74q0 -56 -62 -103t-120 -47q-138 0 -364 72 q-202 64 -346 140q0 -70 -22 -206q-20 -60 -91 -98t-139 -38q-114 0 -114 94zM382 690q584 22 810 212q200 166 200 316q0 116 -120 186q-102 58 -224 58q-224 0 -524 -234q-82 -262 -142 -538z" />
<glyph unicode="s" horiz-adv-x="2012" d="M34 322q0 84 26 152q36 92 106 92q74 0 114 -92q56 -132 104 -174q104 -94 336 -94q210 0 396 84q202 90 312 254q50 74 50 110q0 14 -28 28q-130 58 -512 82l-548 28q-172 16 -172 146q0 178 302 438q550 474 1172 474q148 0 148 -98q0 -36 -10 -150q-12 -120 -18 -142 q-18 -58 -107 -113t-151 -55q-90 0 -92 106l-2 70l-30 2h-9q-205 0 -403 -90q-194 -90 -340 -250q10 2 160 4h38q144 0 512 -30q418 -36 498 -68q68 -28 68 -118q0 -100 -54 -194q-204 -356 -627 -600t-833 -244q-158 0 -232 54q-82 60 -130 174q-44 104 -44 214z" />
<glyph unicode="t" horiz-adv-x="1660" d="M58 1404q0 178 168 254q348 156 892 156q412 0 412 -222q0 -50 -36 -90q-42 -44 -182 -52q-266 -14 -422 -26q-220 -652 -284 -1198q-8 -88 -16 -178q-22 -80 -118 -124q-72 -32 -134 -32q-98 0 -98 82q0 48 82 396q112 482 240 986q-326 -108 -374 -108q-62 0 -98 48 q-32 42 -32 108z" />
<glyph unicode="u" horiz-adv-x="1778" d="M-78 22q0 32 18 104q86 398 276 1186q24 98 86 286q74 164 272 164q116 0 116 -80q0 -38 -44 -146q-126 -304 -224 -670q-126 -474 -122 -542v-10l2 4q98 2 424 122q254 92 434 174q100 462 162 694q18 74 38 146q22 86 48 144q34 74 111 119t161 45q118 0 118 -86 q0 -46 -46 -160q-34 -82 -68 -162q-208 -562 -274 -1050q-12 -100 -24 -198q-26 -102 -122 -148q-62 -30 -136 -30q-102 0 -102 84q0 24 48 222q-184 -84 -508 -188q-368 -118 -512 -118q-132 0 -132 94z" />
<glyph unicode="v" horiz-adv-x="1272" d="M-8 1460q0 172 26 224q42 90 200 90q102 0 102 -146q0 -38 -8 -98q-10 -78 -12 -98q-14 -174 -14 -394q0 -292 32 -570q98 158 296 476l188 308q114 182 204 300q84 110 216 110q52 0 92 -20q48 -26 48 -72q0 -36 -88 -154l-120 -152q-348 -470 -606 -1024 q-30 -84 -108 -240q-54 -84 -208 -84q-76 0 -112 14q-54 22 -72 84q-10 34 -24 314q-32 632 -32 1132z" />
<glyph unicode="w" horiz-adv-x="1908" d="M-44 1494q0 86 87 174t171 88q42 0 68 -47t28 -269l-1 47q-1 0 -1 -339q0 -220 14 -546q132 234 488 780q152 234 264 234q88 0 88 -172q0 -76 32 -398q20 -184 32 -376q138 242 570 968q66 112 72 122q58 78 108 78q64 0 102 -74q30 -60 30 -134q0 -64 -82 -180 q-206 -288 -426 -676q-112 -198 -382 -704q-70 -134 -178 -134q-68 0 -83 96q-14 90 -14 270v24v26q0 178 -13 268q-18 118 -50 352q-356 -570 -604 -1034q-70 -132 -180 -132q-58 0 -74 60q-10 30 -10 108q0 38 4 111t4 103q4 214 4 388q0 438 -38 712q0 12 -18 104 q-12 62 -12 102z" />
<glyph unicode="x" horiz-adv-x="1576" d="M-100 10q0 16 2 24q12 40 650 798q-94 184 -190 366q-136 278 -136 358q0 84 65 175t145 91q46 0 76 -50q24 -40 48 -114q36 -114 36 -120q86 -232 184 -436l268 324q160 188 284 308q78 74 174 74q66 0 120 -36q64 -40 64 -104q0 -40 -34 -84q-2 -2 -138 -134 q-278 -272 -598 -628q64 -122 94 -174q56 -96 108 -166q46 -54 122 -166q10 -22 10 -48q0 -76 -76 -172t-150 -96q-64 0 -142 164q-66 130 -198 392q-208 -248 -326 -410q-46 -68 -146 -200q-56 -62 -152 -62q-64 0 -110 30q-54 36 -54 96z" />
<glyph unicode="y" horiz-adv-x="1600" d="M-72 16q0 16 2 22q4 20 482 598q-116 226 -230 452q-172 352 -172 430q0 70 74 164t142 94q40 0 74 -54q16 -28 32 -78q12 -42 24 -82q106 -320 280 -656q162 192 496 578q74 88 228 254q76 76 170 76q68 0 127 -38t59 -104q0 -20 -4 -30q-14 -42 -152 -176 q-706 -690 -1132 -1264l-136 -196q-96 -120 -190 -120q-68 0 -116 30q-58 36 -58 100z" />
<glyph unicode="z" horiz-adv-x="1888" d="M-32 96q0 60 56 128q36 44 100 102q52 46 104 94q352 336 1062 998h-24q-302 0 -646 -72q-32 -6 -54 -6q-64 0 -102 39t-38 103q0 158 172 220q252 90 628 90q224 0 380 -32q268 -56 268 -194q0 -76 -86 -158q-48 -48 -130 -108q-124 -92 -136 -102q-574 -454 -1058 -962 q76 -4 156 -4q198 0 810 56q50 6 76 6q130 0 130 -84q0 -64 -72 -126q-60 -52 -132 -76q-324 -102 -946 -102q-260 0 -374 28q-144 34 -144 162z" />
<glyph unicode="{" horiz-adv-x="1662" d="M-66 780q0 90 74 163t164 83q44 6 294 14q356 12 612 12q238 0 274 -12q64 -20 64 -84q0 -76 -67 -160t-141 -84q-16 0 -150 18q-214 28 -336 28q-152 0 -470 -40q-200 -24 -230 -24q-88 0 -88 86zM488 -150q0 102 69 160t421 274q366 226 406 226q54 0 86 -74 q24 -56 24 -120q0 -30 -6 -46q-14 -50 -60 -71t-92 -39q-264 -108 -476 -276l-132 -108q-100 -78 -132 -78q-54 0 -84 52q-24 42 -24 100zM860 1740q0 66 88 140t156 74q54 0 338 -190q276 -184 324 -242q16 -18 16 -40q0 -62 -92 -146t-154 -84q-24 0 -46 22 q-104 104 -210 206q-86 74 -264 150q-48 20 -96 38q-60 32 -60 72z" />
<glyph unicode="|" horiz-adv-x="764" d="M-82 -236q0 56 26 148q20 74 42 148q126 532 390 1590q32 124 52 166q38 86 106 136q82 60 182 60q104 0 104 -90q0 -44 -70 -230q-312 -840 -434 -1564q-8 -102 -48 -296q-24 -68 -101 -118t-151 -50q-98 0 -98 100z" />
<glyph unicode="}" horiz-adv-x="1788" d="M-40 170q0 62 91 144t155 82q24 0 48 -20q66 -78 210 -220q68 -56 308 -158q30 -10 78 -34q32 -24 32 -54q0 -62 -92 -138t-156 -76q-52 0 -336 190q-278 184 -324 242q-14 20 -14 42zM246 1316q0 92 54 130q10 6 102 44q154 64 258 122q86 48 222 162q148 120 220 166 q24 14 44 14q54 0 84 -62q24 -50 24 -112q0 -82 -68 -140q-80 -64 -424 -278q-362 -224 -408 -224q-52 0 -82 66q-26 54 -26 112zM324 696q0 74 67 158t141 84q22 0 150 -18q220 -30 334 -30q172 0 470 36q216 28 232 28q90 0 90 -86q0 -92 -71 -161t-165 -83 q-58 -8 -310 -18q-306 -10 -564 -10q-266 0 -306 12q-68 20 -68 88z" />
<glyph unicode="~" horiz-adv-x="1594" d="M148 772q0 140 68 214q144 158 298 158q90 0 255 -82t259 -82q72 0 205 98t139 98q84 0 84 -154q0 -52 -10 -88q-26 -92 -174 -188t-246 -96t-267 84t-225 84q-58 0 -168 -83t-134 -83q-84 0 -84 120z" />
<glyph unicode="&#xa0;" />
<glyph unicode="&#xa8;" />
<glyph unicode="&#xa9;" horiz-adv-x="2228" d="M50 438q0 318 244 664q230 328 574 546q358 226 674 226q288 0 477 -178t189 -466q0 -316 -244 -662q-230 -324 -576 -542q-358 -224 -674 -224q-286 0 -472 172q-192 178 -192 464zM426 546q0 -194 96 -322q106 -142 294 -142q168 0 374 108q274 140 440 368 q180 248 180 536q0 196 -98 326q-108 142 -296 142q-168 0 -374 -104q-272 -138 -438 -370q-178 -250 -178 -542zM520 526q0 210 356 574q252 260 488 260q122 0 204 -100q92 -112 92 -184q0 -60 -68 -106q-60 -40 -124 -40q-48 0 -100 60t-104 60q-102 0 -252 -126 t-150 -226q0 -124 194 -124q96 0 238 88t224 88q58 0 58 -46q0 -22 -14 -48q-82 -142 -336 -256q-238 -106 -418 -106q-122 0 -200 54q-88 62 -88 178z" />
<glyph unicode="&#xad;" horiz-adv-x="1676" d="M150 728q0 114 90 144q42 12 184 12q252 0 464 36q50 8 266 70q198 58 226 58q56 0 88 -58q28 -48 28 -108q0 -114 -80 -150t-546 -102q-452 -66 -574 -66q-66 0 -106 49t-40 115z" />
<glyph unicode="&#xae;" horiz-adv-x="2226" d="M48 440q0 316 244 664q230 326 574 544q358 226 674 226q288 0 477 -177t189 -465q0 -318 -244 -664q-230 -324 -576 -542q-358 -224 -674 -224q-286 0 -472 174q-192 178 -192 464zM422 554q0 -196 96 -326q108 -146 296 -146q166 0 374 108q272 140 438 368 q182 250 182 538q0 194 -100 324q-108 142 -296 142q-182 0 -408 -126q-208 -118 -338 -270q-244 -288 -244 -612zM576 294q0 120 48 304q42 150 84 298q-18 -10 -36 -10q-36 0 -58 40q-20 34 -20 74q0 62 134 174q272 232 510 232q170 0 286 -72q136 -86 136 -246 q0 -344 -536 -496l208 -130q68 -42 68 -92q0 -76 -94 -76q-40 0 -78 16l-400 164q-10 -130 -28 -168q-36 -78 -142 -78q-82 0 -82 66zM876 744q182 12 328 66q218 78 218 216q0 72 -68 114q-56 34 -134 34q-114 0 -244 -74q-60 -180 -100 -356z" />
<glyph unicode="&#xd2;" />
<glyph unicode="&#xd3;" />
<glyph unicode="&#xd4;" />
<glyph unicode="&#xd5;" />
<glyph unicode="&#x2000;" horiz-adv-x="1041" />
<glyph unicode="&#x2001;" horiz-adv-x="2082" />
<glyph unicode="&#x2002;" horiz-adv-x="1041" />
<glyph unicode="&#x2003;" horiz-adv-x="2082" />
<glyph unicode="&#x2004;" horiz-adv-x="694" />
<glyph unicode="&#x2005;" horiz-adv-x="520" />
<glyph unicode="&#x2006;" horiz-adv-x="347" />
<glyph unicode="&#x2007;" horiz-adv-x="347" />
<glyph unicode="&#x2008;" horiz-adv-x="260" />
<glyph unicode="&#x2009;" horiz-adv-x="416" />
<glyph unicode="&#x200a;" horiz-adv-x="115" />
<glyph unicode="&#x2010;" horiz-adv-x="1676" d="M150 728q0 114 90 144q42 12 184 12q252 0 464 36q50 8 266 70q198 58 226 58q56 0 88 -58q28 -48 28 -108q0 -114 -80 -150t-546 -102q-452 -66 -574 -66q-66 0 -106 49t-40 115z" />
<glyph unicode="&#x2011;" horiz-adv-x="1676" d="M150 728q0 114 90 144q42 12 184 12q252 0 464 36q50 8 266 70q198 58 226 58q56 0 88 -58q28 -48 28 -108q0 -114 -80 -150t-546 -102q-452 -66 -574 -66q-66 0 -106 49t-40 115z" />
<glyph unicode="&#x2012;" horiz-adv-x="1676" d="M150 728q0 114 90 144q42 12 184 12q252 0 464 36q50 8 266 70q198 58 226 58q56 0 88 -58q28 -48 28 -108q0 -114 -80 -150t-546 -102q-452 -66 -574 -66q-66 0 -106 49t-40 115z" />
<glyph unicode="&#x2013;" horiz-adv-x="1354" d="M150 728q0 114 68 144q32 12 140 12q192 0 353 36q38 8 203 70q150 58 172 58q42 0 67 -58q21 -48 21 -108q0 -114 -61 -150t-415 -102q-344 -66 -437 -66q-50 0 -80.5 49t-30.5 115z" />
<glyph unicode="&#x2014;" horiz-adv-x="2378" d="M150 728q0 114 137 144q64 12 280 12q383 0 706 36q76 8 405 70q301 58 344 58q85 0 133 -58q43 -48 43 -108q0 -114 -121.5 -150t-830.5 -102q-688 -66 -874 -66q-100 0 -161 49t-61 115z" />
<glyph unicode="&#x2018;" horiz-adv-x="508" d="M76 1802q0 60 82 106q70 40 134 40q110 0 130 -96q6 -56 20 -168q4 -20 36 -208q24 -144 24 -194q0 -70 -54 -115t-126 -45q-78 0 -112 82q-28 68 -81 301t-53 297z" />
<glyph unicode="&#x2019;" horiz-adv-x="650" d="M-28 1232q0 50 70 142q54 74 166 248q104 162 167 243t165 81q60 0 104 -30q52 -34 52 -92q0 -14 -2 -26q-10 -36 -210 -298q-188 -244 -248 -308q-64 -70 -130 -70q-52 0 -93 29t-41 81z" />
<glyph unicode="&#x201c;" horiz-adv-x="904" d="M48 1684q0 60 80 106q70 40 136 40q110 0 128 -98q8 -56 22 -170q2 -18 34 -206q24 -144 24 -196q0 -66 -54 -111t-124 -45q-78 0 -112 82q-28 66 -81 300t-53 298zM484 1818q0 60 80 106q70 40 136 40q112 0 132 -98q6 -56 20 -168q2 -20 34 -208q26 -144 26 -194 q0 -68 -54 -114t-124 -46q-78 0 -114 84q-28 70 -82 300t-54 298z" />
<glyph unicode="&#x201d;" horiz-adv-x="982" d="M-40 1244q0 52 70 144q54 74 166 248q102 164 167 245t167 81q60 0 107 -32t47 -90q0 -14 -2 -26q-10 -36 -210 -298q-188 -244 -246 -308q-68 -72 -134 -72q-52 0 -92 29t-40 79zM324 1114q0 46 72 140q58 76 166 248q104 164 167 245t165 81q62 0 106 -30 q52 -34 52 -92q0 -14 -4 -26q-10 -40 -210 -298q-184 -240 -248 -309t-130 -69q-52 0 -94 29t-42 81z" />
<glyph unicode="&#x2026;" horiz-adv-x="1968" d="M230 56q0 80 98 314q36 84 192 84q146 0 146 -76q0 -28 -68 -168q-62 -130 -88 -168q-50 -72 -166 -72q-114 0 -114 86zM768 58q0 80 98 316q34 82 192 82q146 0 146 -76q0 -28 -68 -168q-64 -130 -90 -168q-48 -72 -164 -72q-114 0 -114 86zM1306 60q0 80 98 316 q34 82 190 82q148 0 148 -76q0 -28 -68 -168q-64 -130 -90 -168q-50 -70 -164 -70t-114 84z" />
<glyph unicode="&#x202f;" horiz-adv-x="416" />
<glyph unicode="&#x205f;" horiz-adv-x="520" />
<glyph unicode="&#x2122;" horiz-adv-x="2012" d="M120 1598q0 144 216 210q144 42 334 42q132 0 192 -60q44 -42 44 -76q0 -62 -126 -86q-26 -4 -174 -16q-124 -354 -164 -686q0 -44 -16 -130q-16 -44 -62 -71t-94 -27q-74 0 -74 62q0 98 74 392q54 206 108 410l-162 -46q-96 0 -96 82zM560 868q0 22 5 36t89 128 q232 306 430 666q46 84 120 84q58 0 68 -70q0 -60 6 -176q8 -138 48 -364q44 70 362 644q44 80 118 80q70 0 70 -142q0 -40 -2 -121t-2 -121q0 -102 6 -180q4 -46 26 -186q18 -116 18 -186q0 -54 -58 -105t-112 -51q-36 0 -56 38q-12 26 -22 246l-8 276q-146 -266 -200 -352 q-168 -272 -236 -272q-78 0 -116 242q-14 90 -28 314q-122 -194 -252 -382q-34 -56 -108 -154q-36 -36 -68 -36q-44 0 -72 52q-26 44 -26 92z" />
<glyph unicode="&#x25fc;" horiz-adv-x="1820" d="M0 0v1820h1820v-1820h-1820z" />
<glyph />
<glyph />
<glyph />
</font>
</defs>
</svg>
